<?xml version="1.0" encoding="UTF-8" standalone="no"?>
<!DOCTYPE svg PUBLIC "-//W3C//DTD SVG 1.1//EN"
 "http://www.w3.org/Graphics/SVG/1.1/DTD/svg11.dtd">
<!-- Generated by graphviz version 2.40.1 (20161225.0304)
 -->
<!-- Title: state transitions Pages: 1 -->
<svg width="632pt" height="470pt"
 viewBox="0.00 0.00 632.00 470.00" xmlns="http://www.w3.org/2000/svg" xmlns:xlink="http://www.w3.org/1999/xlink">
<g id="graph0" class="graph" transform="scale(1 1) rotate(0) translate(4 466)">
<title>state transitions</title>
<polygon fill="#ffffff" stroke="transparent" points="-4,4 -4,-466 628,-466 628,4 -4,4"/>
<g id="clust1" class="cluster state regular">
<title>cluster_r_RX_STATE</title>
<path fill="none" stroke="#000000" stroke-width="2" d="M20,-8C20,-8 604,-8 604,-8 610,-8 616,-14 616,-20 616,-20 616,-442 616,-442 616,-448 610,-454 604,-454 604,-454 20,-454 20,-454 14,-454 8,-448 8,-442 8,-442 8,-20 8,-20 8,-14 14,-8 20,-8"/>
<text text-anchor="start" x="275.664" y="-435.2" font-family="Helvetica,sans-Serif" font-size="12.00" fill="#000000">r_RX_STATE</text>
</g>
<!-- r_RX_STATE -->
<!-- IDLE -->
<g id="node2" class="node state regular">
<title>IDLE</title>
<polygon fill="#ffffff" fill-opacity="0.003922" stroke="transparent" stroke-width="2" points="314,-416 258,-416 258,-380 314,-380 314,-416"/>
<text text-anchor="start" x="272.6644" y="-394.2" font-family="Helvetica,sans-Serif" font-size="12.00" fill="#000000">IDLE</text>
<path fill="none" stroke="#000000" stroke-width="2" d="M270.3333,-381C270.3333,-381 301.6667,-381 301.6667,-381 307.3333,-381 313,-386.6667 313,-392.3333 313,-392.3333 313,-403.6667 313,-403.6667 313,-409.3333 307.3333,-415 301.6667,-415 301.6667,-415 270.3333,-415 270.3333,-415 264.6667,-415 259,-409.3333 259,-403.6667 259,-403.6667 259,-392.3333 259,-392.3333 259,-386.6667 264.6667,-381 270.3333,-381"/>
</g>
<!-- IDLE&#45;&gt;IDLE -->
<g id="edge2" class="edge transition">
<title>IDLE&#45;&gt;IDLE</title>
<path fill="none" stroke="#000000" d="M314.0183,-402.8247C325.888,-403.1883 336,-401.5801 336,-398 336,-395.5387 331.2205,-394.0094 324.3762,-393.4121"/>
<polygon fill="#000000" stroke="#000000" points="324.0957,-389.9049 314.0183,-393.1753 323.9356,-396.903 324.0957,-389.9049"/>
<text text-anchor="start" x="336" y="-395" font-family="Helvetica,sans-Serif" font-size="10.00" fill="#000000">not (i_RX_Serial = &#39;0&#39;) &#160;&#160;</text>
</g>
<!-- RX_START_BIT -->
<g id="node3" class="node state regular">
<title>RX_START_BIT</title>
<polygon fill="#ffffff" fill-opacity="0.003922" stroke="transparent" stroke-width="2" points="215,-322 105,-322 105,-286 215,-286 215,-322"/>
<text text-anchor="start" x="115.9972" y="-300.2" font-family="Helvetica,sans-Serif" font-size="12.00" fill="#000000">RX_START_BIT</text>
<path fill="none" stroke="#000000" stroke-width="2" d="M117.3333,-287C117.3333,-287 202.6667,-287 202.6667,-287 208.3333,-287 214,-292.6667 214,-298.3333 214,-298.3333 214,-309.6667 214,-309.6667 214,-315.3333 208.3333,-321 202.6667,-321 202.6667,-321 117.3333,-321 117.3333,-321 111.6667,-321 106,-315.3333 106,-309.6667 106,-309.6667 106,-298.3333 106,-298.3333 106,-292.6667 111.6667,-287 117.3333,-287"/>
</g>
<!-- IDLE&#45;&gt;RX_START_BIT -->
<g id="edge1" class="edge transition">
<title>IDLE&#45;&gt;RX_START_BIT</title>
<path fill="none" stroke="#000000" d="M257.8808,-392.1937C229.3539,-385.764 187.8332,-374.7448 176.51,-363 168.5658,-354.76 164.383,-343.0224 162.2032,-332.1837"/>
<polygon fill="#000000" stroke="#000000" points="165.6489,-331.5626 160.6696,-322.2107 158.7302,-332.6266 165.6489,-331.5626"/>
<text text-anchor="start" x="176" y="-348" font-family="Helvetica,sans-Serif" font-size="10.00" fill="#000000">i_RX_Serial = &#39;0&#39; &#160;&#160;</text>
</g>
<!-- RX_START_BIT&#45;&gt;IDLE -->
<g id="edge4" class="edge transition">
<title>RX_START_BIT&#45;&gt;IDLE</title>
<path fill="none" stroke="#000000" d="M215.2392,-314.5445C231.1647,-319.7611 247.5744,-327.5123 260,-339 268.9357,-347.2613 274.971,-359.1467 278.9578,-370.088"/>
<polygon fill="#000000" stroke="#000000" points="275.6694,-371.295 282.0676,-379.7398 282.3321,-369.1482 275.6694,-371.295"/>
<text text-anchor="start" x="276" y="-354" font-family="Helvetica,sans-Serif" font-size="10.00" fill="#000000">r_Clock_Count = (CLOCKS_PER_BIT)/2 &#160;&#160;</text>
<text text-anchor="start" x="276" y="-342" font-family="Helvetica,sans-Serif" font-size="10.00" fill="#000000">not (i_RX_Serial = &#39;0&#39;) &#160;&#160;</text>
</g>
<!-- RX_START_BIT&#45;&gt;RX_START_BIT -->
<g id="edge5" class="edge transition">
<title>RX_START_BIT&#45;&gt;RX_START_BIT</title>
<path fill="none" stroke="#000000" d="M215.025,-308.7676C227.6938,-308.3568 237,-306.7676 237,-304 237,-302.054 232.3992,-300.6907 225.2635,-299.9099"/>
<polygon fill="#000000" stroke="#000000" points="225.2343,-296.4004 215.025,-299.2324 224.7721,-303.3851 225.2343,-296.4004"/>
<text text-anchor="start" x="237" y="-301" font-family="Helvetica,sans-Serif" font-size="10.00" fill="#000000">not (r_Clock_Count = (CLOCKS_PER_BIT)/2) &#160;&#160;</text>
</g>
<!-- RX_DATA_BITS -->
<g id="node4" class="node state regular">
<title>RX_DATA_BITS</title>
<polygon fill="#ffffff" fill-opacity="0.003922" stroke="transparent" stroke-width="2" points="126,-228 16,-228 16,-192 126,-192 126,-228"/>
<text text-anchor="start" x="26.6612" y="-206.2" font-family="Helvetica,sans-Serif" font-size="12.00" fill="#000000">RX_DATA_BITS</text>
<path fill="none" stroke="#000000" stroke-width="2" d="M28.3333,-193C28.3333,-193 113.6667,-193 113.6667,-193 119.3333,-193 125,-198.6667 125,-204.3333 125,-204.3333 125,-215.6667 125,-215.6667 125,-221.3333 119.3333,-227 113.6667,-227 113.6667,-227 28.3333,-227 28.3333,-227 22.6667,-227 17,-221.3333 17,-215.6667 17,-215.6667 17,-204.3333 17,-204.3333 17,-198.6667 22.6667,-193 28.3333,-193"/>
</g>
<!-- RX_START_BIT&#45;&gt;RX_DATA_BITS -->
<g id="edge3" class="edge transition">
<title>RX_START_BIT&#45;&gt;RX_DATA_BITS</title>
<path fill="none" stroke="#000000" d="M142.8399,-285.8759C129.2963,-271.5713 110.2362,-251.4405 95.1516,-235.5084"/>
<polygon fill="#000000" stroke="#000000" points="97.5243,-232.9237 88.1074,-228.0685 92.4412,-237.7365 97.5243,-232.9237"/>
<text text-anchor="start" x="126" y="-260" font-family="Helvetica,sans-Serif" font-size="10.00" fill="#000000">i_RX_Serial = &#39;0&#39; &#160;&#160;</text>
<text text-anchor="start" x="126" y="-248" font-family="Helvetica,sans-Serif" font-size="10.00" fill="#000000">r_Clock_Count = (CLOCKS_PER_BIT)/2 &#160;&#160;</text>
</g>
<!-- RX_DATA_BITS&#45;&gt;RX_DATA_BITS -->
<g id="edge6" class="edge transition">
<title>RX_DATA_BITS&#45;&gt;RX_DATA_BITS</title>
<path fill="none" stroke="#000000" d="M126.025,-212.3838C138.6938,-212.1784 148,-211.3838 148,-210 148,-209.027 143.3992,-208.3453 136.2635,-207.9549"/>
<polygon fill="#000000" stroke="#000000" points="136.1353,-204.4489 126.025,-207.6162 135.9038,-211.445 136.1353,-204.4489"/>
<text text-anchor="start" x="148" y="-207" font-family="Helvetica,sans-Serif" font-size="10.00" fill="#000000">r_Clock_Count &lt; CLOCKS_PER_BIT &#45; 1 &#160;&#160;</text>
</g>
<!-- RX_DATA_BITS&#45;&gt;RX_DATA_BITS -->
<g id="edge7" class="edge transition">
<title>RX_DATA_BITS&#45;&gt;RX_DATA_BITS</title>
<path fill="none" stroke="#000000" d="M126.1192,-213.6467C205.4412,-216.0969 336.645,-214.8813 336.645,-210 336.645,-205.3189 215.9833,-204.009 136.1287,-206.0703"/>
<polygon fill="#000000" stroke="#000000" points="136.0163,-202.572 126.1192,-206.3533 136.2141,-209.5692 136.0163,-202.572"/>
<text text-anchor="start" x="336.645" y="-213" font-family="Helvetica,sans-Serif" font-size="10.00" fill="#000000">r_Bit_Index &lt; 7 &#160;&#160;</text>
<text text-anchor="start" x="336.645" y="-201" font-family="Helvetica,sans-Serif" font-size="10.00" fill="#000000">not (r_Clock_Count &lt; CLOCKS_PER_BIT &#45; 1) &#160;&#160;</text>
</g>
<!-- RX_STOP_BIT -->
<g id="node5" class="node state regular">
<title>RX_STOP_BIT</title>
<polygon fill="#ffffff" fill-opacity="0.003922" stroke="transparent" stroke-width="2" points="256.5,-134 153.5,-134 153.5,-98 256.5,-98 256.5,-134"/>
<text text-anchor="start" x="164.8266" y="-112.2" font-family="Helvetica,sans-Serif" font-size="12.00" fill="#000000">RX_STOP_BIT</text>
<path fill="none" stroke="#000000" stroke-width="2" d="M165.8333,-99C165.8333,-99 244.1667,-99 244.1667,-99 249.8333,-99 255.5,-104.6667 255.5,-110.3333 255.5,-110.3333 255.5,-121.6667 255.5,-121.6667 255.5,-127.3333 249.8333,-133 244.1667,-133 244.1667,-133 165.8333,-133 165.8333,-133 160.1667,-133 154.5,-127.3333 154.5,-121.6667 154.5,-121.6667 154.5,-110.3333 154.5,-110.3333 154.5,-104.6667 160.1667,-99 165.8333,-99"/>
</g>
<!-- RX_DATA_BITS&#45;&gt;RX_STOP_BIT -->
<g id="edge8" class="edge transition">
<title>RX_DATA_BITS&#45;&gt;RX_STOP_BIT</title>
<path fill="none" stroke="#000000" d="M96.8365,-191.8759C117.8769,-177.1162 147.7599,-156.1535 170.7862,-140.0007"/>
<polygon fill="#000000" stroke="#000000" points="173.0662,-142.6767 179.2428,-134.0685 169.0462,-136.9461 173.0662,-142.6767"/>
<text text-anchor="start" x="154" y="-166" font-family="Helvetica,sans-Serif" font-size="10.00" fill="#000000">not (r_Clock_Count &lt; CLOCKS_PER_BIT &#45; 1) &#160;&#160;</text>
<text text-anchor="start" x="154" y="-154" font-family="Helvetica,sans-Serif" font-size="10.00" fill="#000000">not (r_Bit_Index &lt; 7) &#160;&#160;</text>
</g>
<!-- RX_STOP_BIT&#45;&gt;RX_STOP_BIT -->
<g id="edge9" class="edge transition">
<title>RX_STOP_BIT&#45;&gt;RX_STOP_BIT</title>
<path fill="none" stroke="#000000" d="M256.5182,-120.7988C269.1211,-120.4434 278.5,-118.8438 278.5,-116 278.5,-114.0005 273.8632,-112.6161 266.7292,-111.8467"/>
<polygon fill="#000000" stroke="#000000" points="266.7191,-108.3392 256.5182,-111.2012 266.2774,-115.3252 266.7191,-108.3392"/>
<text text-anchor="start" x="278.5" y="-113" font-family="Helvetica,sans-Serif" font-size="10.00" fill="#000000">r_Clock_Count &lt; CLOCKS_PER_BIT &#160;&#160;</text>
</g>
<!-- CLEANUP -->
<g id="node6" class="node state regular">
<title>CLEANUP</title>
<polygon fill="#ffffff" fill-opacity="0.003922" stroke="transparent" stroke-width="2" points="426,-52 348,-52 348,-16 426,-16 426,-52"/>
<text text-anchor="start" x="358.6662" y="-30.2" font-family="Helvetica,sans-Serif" font-size="12.00" fill="#000000">CLEANUP</text>
<path fill="none" stroke="#000000" stroke-width="2" d="M360.3333,-17C360.3333,-17 413.6667,-17 413.6667,-17 419.3333,-17 425,-22.6667 425,-28.3333 425,-28.3333 425,-39.6667 425,-39.6667 425,-45.3333 419.3333,-51 413.6667,-51 413.6667,-51 360.3333,-51 360.3333,-51 354.6667,-51 349,-45.3333 349,-39.6667 349,-39.6667 349,-28.3333 349,-28.3333 349,-22.6667 354.6667,-17 360.3333,-17"/>
</g>
<!-- RX_STOP_BIT&#45;&gt;CLEANUP -->
<g id="edge10" class="edge transition">
<title>RX_STOP_BIT&#45;&gt;CLEANUP</title>
<path fill="none" stroke="#000000" d="M245.3917,-97.8015C272.9848,-85.3695 309.6805,-68.8363 338.8025,-55.7154"/>
<polygon fill="#000000" stroke="#000000" points="340.2908,-58.8837 347.9704,-51.5848 337.4153,-52.5016 340.2908,-58.8837"/>
<text text-anchor="start" x="308" y="-72" font-family="Helvetica,sans-Serif" font-size="10.00" fill="#000000">not (r_Clock_Count &lt; CLOCKS_PER_BIT) &#160;&#160;</text>
</g>
<!-- CLEANUP&#45;&gt;IDLE -->
<g id="edge11" class="edge transition">
<title>CLEANUP&#45;&gt;IDLE</title>
<path fill="none" stroke="#000000" d="M426.2258,-37.4304C488.9894,-43.4542 605,-57.0203 605,-75 605,-351 605,-351 605,-351 605,-379.0833 408.9961,-392.0183 324.2665,-396.298"/>
<polygon fill="#000000" stroke="#000000" points="323.846,-392.8143 314.0295,-396.8001 324.189,-399.8059 323.846,-392.8143"/>
<text text-anchor="middle" x="606.3895" y="-207" font-family="Helvetica,sans-Serif" font-size="10.00" fill="#000000"> </text>
</g>
</g>
</svg>
