<?xml version="1.0" encoding="UTF-8" standalone="no"?>
<!DOCTYPE svg PUBLIC "-//W3C//DTD SVG 1.1//EN"
 "http://www.w3.org/Graphics/SVG/1.1/DTD/svg11.dtd">
<!-- Generated by graphviz version 2.40.1 (20161225.0304)
 -->
<!-- Title: state transitions Pages: 1 -->
<svg width="626pt" height="376pt"
 viewBox="0.00 0.00 626.08 376.00" xmlns="http://www.w3.org/2000/svg" xmlns:xlink="http://www.w3.org/1999/xlink">
<g id="graph0" class="graph" transform="scale(1 1) rotate(0) translate(4 372)">
<title>state transitions</title>
<polygon fill="#ffffff" stroke="transparent" points="-4,4 -4,-372 622.079,-372 622.079,4 -4,4"/>
<g id="clust1" class="cluster state regular">
<title>cluster_r_TX_STATE</title>
<path fill="none" stroke="#000000" stroke-width="2" d="M20,-8C20,-8 528,-8 528,-8 534,-8 540,-14 540,-20 540,-20 540,-348 540,-348 540,-354 534,-360 528,-360 528,-360 20,-360 20,-360 14,-360 8,-354 8,-348 8,-348 8,-20 8,-20 8,-14 14,-8 20,-8"/>
<text text-anchor="start" x="238.83" y="-341.2" font-family="Helvetica,sans-Serif" font-size="12.00" fill="#000000">r_TX_STATE</text>
</g>
<!-- r_TX_STATE -->
<!-- IDLE -->
<g id="node2" class="node state regular">
<title>IDLE</title>
<polygon fill="#ffffff" fill-opacity="0.003922" stroke="transparent" stroke-width="2" points="288,-322 232,-322 232,-286 288,-286 288,-322"/>
<text text-anchor="start" x="246.6644" y="-300.2" font-family="Helvetica,sans-Serif" font-size="12.00" fill="#000000">IDLE</text>
<path fill="none" stroke="#000000" stroke-width="2" d="M244.3333,-287C244.3333,-287 275.6667,-287 275.6667,-287 281.3333,-287 287,-292.6667 287,-298.3333 287,-298.3333 287,-309.6667 287,-309.6667 287,-315.3333 281.3333,-321 275.6667,-321 275.6667,-321 244.3333,-321 244.3333,-321 238.6667,-321 233,-315.3333 233,-309.6667 233,-309.6667 233,-298.3333 233,-298.3333 233,-292.6667 238.6667,-287 244.3333,-287"/>
</g>
<!-- TX_START_BIT -->
<g id="node4" class="node state regular">
<title>TX_START_BIT</title>
<polygon fill="#ffffff" fill-opacity="0.003922" stroke="transparent" stroke-width="2" points="124,-240 16,-240 16,-204 124,-204 124,-240"/>
<text text-anchor="start" x="26.6632" y="-218.2" font-family="Helvetica,sans-Serif" font-size="12.00" fill="#000000">TX_START_BIT</text>
<path fill="none" stroke="#000000" stroke-width="2" d="M28.3333,-205C28.3333,-205 111.6667,-205 111.6667,-205 117.3333,-205 123,-210.6667 123,-216.3333 123,-216.3333 123,-227.6667 123,-227.6667 123,-233.3333 117.3333,-239 111.6667,-239 111.6667,-239 28.3333,-239 28.3333,-239 22.6667,-239 17,-233.3333 17,-227.6667 17,-227.6667 17,-216.3333 17,-216.3333 17,-210.6667 22.6667,-205 28.3333,-205"/>
</g>
<!-- IDLE&#45;&gt;TX_START_BIT -->
<g id="edge1" class="edge transition">
<title>IDLE&#45;&gt;TX_START_BIT</title>
<path fill="none" stroke="#000000" d="M231.9648,-291.9006C202.8741,-279.3457 156.738,-259.4343 121.1344,-244.0685"/>
<polygon fill="#000000" stroke="#000000" points="122.43,-240.8157 111.8616,-240.0666 119.6562,-247.2427 122.43,-240.8157"/>
<text text-anchor="start" x="177" y="-260" font-family="Helvetica,sans-Serif" font-size="10.00" fill="#000000">i_TX_DV = &#39;1&#39; &#160;&#160;</text>
</g>
<!-- TX_STOP_BIT -->
<g id="node3" class="node state regular">
<title>TX_STOP_BIT</title>
<polygon fill="#ffffff" fill-opacity="0.003922" stroke="transparent" stroke-width="2" points="230,-52 128,-52 128,-16 230,-16 230,-52"/>
<text text-anchor="start" x="138.9926" y="-30.2" font-family="Helvetica,sans-Serif" font-size="12.00" fill="#000000">TX_STOP_BIT</text>
<path fill="none" stroke="#000000" stroke-width="2" d="M140.3333,-17C140.3333,-17 217.6667,-17 217.6667,-17 223.3333,-17 229,-22.6667 229,-28.3333 229,-28.3333 229,-39.6667 229,-39.6667 229,-45.3333 223.3333,-51 217.6667,-51 217.6667,-51 140.3333,-51 140.3333,-51 134.6667,-51 129,-45.3333 129,-39.6667 129,-39.6667 129,-28.3333 129,-28.3333 129,-22.6667 134.6667,-17 140.3333,-17"/>
</g>
<!-- TX_STOP_BIT&#45;&gt;IDLE -->
<g id="edge3" class="edge transition">
<title>TX_STOP_BIT&#45;&gt;IDLE</title>
<path fill="none" stroke="#000000" d="M230.1499,-38.5799C292.2254,-44.6648 390.0201,-56.1534 401,-69 453.2351,-130.1155 394.2024,-178.8566 342,-240 328.9403,-255.2965 311.7235,-269.3969 296.4386,-280.4467"/>
<polygon fill="#000000" stroke="#000000" points="294.345,-277.6402 288.1844,-286.2598 298.3756,-283.3634 294.345,-277.6402"/>
<text text-anchor="start" x="405" y="-178" font-family="Helvetica,sans-Serif" font-size="10.00" fill="#000000">not (r_Clock_Count &lt; (CLOCKS_PER_BIT&#45;1)) &#160;&#160;</text>
<text text-anchor="start" x="405" y="-166" font-family="Helvetica,sans-Serif" font-size="10.00" fill="#000000">not (i_TX_DV = &#39;1&#39;) &#160;&#160;</text>
</g>
<!-- TX_STOP_BIT&#45;&gt;TX_START_BIT -->
<g id="edge2" class="edge transition">
<title>TX_STOP_BIT&#45;&gt;TX_START_BIT</title>
<path fill="none" stroke="#000000" d="M127.8383,-49.9154C99.4695,-61.658 66.6349,-80.7633 49.921,-110 35.0137,-136.0765 44.8981,-170.6876 55.3832,-194.4959"/>
<polygon fill="#000000" stroke="#000000" points="52.2717,-196.1045 59.6879,-203.6709 58.6089,-193.1311 52.2717,-196.1045"/>
<text text-anchor="start" x="49" y="-131" font-family="Helvetica,sans-Serif" font-size="10.00" fill="#000000">i_TX_DV = &#39;1&#39; &#160;&#160;</text>
<text text-anchor="start" x="49" y="-119" font-family="Helvetica,sans-Serif" font-size="10.00" fill="#000000">not (r_Clock_Count &lt; (CLOCKS_PER_BIT&#45;1)) &#160;&#160;</text>
</g>
<!-- TX_START_BIT&#45;&gt;TX_START_BIT -->
<g id="edge4" class="edge transition">
<title>TX_START_BIT&#45;&gt;TX_START_BIT</title>
<path fill="none" stroke="#000000" d="M124.3104,-226.7676C136.8147,-226.3568 146,-224.7676 146,-222 146,-220.054 141.4589,-218.6907 134.416,-217.9099"/>
<polygon fill="#000000" stroke="#000000" points="134.5221,-214.4092 124.3104,-217.2324 134.0539,-221.3935 134.5221,-214.4092"/>
<text text-anchor="start" x="146" y="-219" font-family="Helvetica,sans-Serif" font-size="10.00" fill="#000000">r_Clock_Count &lt; (CLOCKS_PER_BIT&#45;1) &#160;&#160;</text>
</g>
<!-- TX_DATA_BITS -->
<g id="node5" class="node state regular">
<title>TX_DATA_BITS</title>
<polygon fill="#ffffff" fill-opacity="0.003922" stroke="transparent" stroke-width="2" points="382.5,-146 273.5,-146 273.5,-110 382.5,-110 382.5,-146"/>
<text text-anchor="start" x="284.8272" y="-124.2" font-family="Helvetica,sans-Serif" font-size="12.00" fill="#000000">TX_DATA_BITS</text>
<path fill="none" stroke="#000000" stroke-width="2" d="M285.8333,-111C285.8333,-111 370.1667,-111 370.1667,-111 375.8333,-111 381.5,-116.6667 381.5,-122.3333 381.5,-122.3333 381.5,-133.6667 381.5,-133.6667 381.5,-139.3333 375.8333,-145 370.1667,-145 370.1667,-145 285.8333,-145 285.8333,-145 280.1667,-145 274.5,-139.3333 274.5,-133.6667 274.5,-133.6667 274.5,-122.3333 274.5,-122.3333 274.5,-116.6667 280.1667,-111 285.8333,-111"/>
</g>
<!-- TX_START_BIT&#45;&gt;TX_DATA_BITS -->
<g id="edge5" class="edge transition">
<title>TX_START_BIT&#45;&gt;TX_DATA_BITS</title>
<path fill="none" stroke="#000000" d="M67.4091,-203.8927C66.6211,-190.6436 68.0899,-173.2578 78.921,-163 107.6235,-135.8168 217.0404,-152.7015 256,-146 258.3571,-145.5946 260.7509,-145.1533 263.1638,-144.6835"/>
<polygon fill="#000000" stroke="#000000" points="264.0655,-148.071 273.1447,-142.6103 262.6419,-141.2172 264.0655,-148.071"/>
<text text-anchor="start" x="78" y="-172" font-family="Helvetica,sans-Serif" font-size="10.00" fill="#000000">not (r_Clock_Count &lt; (CLOCKS_PER_BIT&#45;1)) &#160;&#160;</text>
</g>
<!-- TX_DATA_BITS&#45;&gt;TX_STOP_BIT -->
<g id="edge6" class="edge transition">
<title>TX_DATA_BITS&#45;&gt;TX_STOP_BIT</title>
<path fill="none" stroke="#000000" d="M273.2215,-114.1409C237.5358,-105.0086 197.3074,-94.4707 195.809,-93 187.5717,-84.9154 183.2962,-73.1032 181.1045,-62.1678"/>
<polygon fill="#000000" stroke="#000000" points="184.5381,-61.4656 179.5803,-52.1024 177.617,-62.5137 184.5381,-61.4656"/>
<text text-anchor="start" x="195" y="-84" font-family="Helvetica,sans-Serif" font-size="10.00" fill="#000000">not (r_Clock_Count &lt; (CLOCKS_PER_BIT)) &#160;&#160;</text>
<text text-anchor="start" x="195" y="-72" font-family="Helvetica,sans-Serif" font-size="10.00" fill="#000000">not (r_TX_Bit_Index &lt; 7) &#160;&#160;</text>
</g>
</g>
</svg>
